<?xml version="1.0" encoding="UTF-8"?> <!-- Generator: Adobe Illustrator 21.0.0, SVG Export Plug-In . SVG Version: 6.00 Build 0) --> <svg xmlns="http://www.w3.org/2000/svg" xmlns:xlink="http://www.w3.org/1999/xlink" id="Capa_1" x="0px" y="0px" viewBox="0 0 114.7 224" style="enable-background:new 0 0 114.7 224;" xml:space="preserve"> <style type="text/css"> .st0{fill:#58891F;} .st1{fill:#FFFFFF;} </style> <g> <path class="st0" d="M102.4,198.4c0,7.2-4.6,13-10.2,13H22.5c-5.7,0-10.2-5.8-10.2-13V12.6h90V198.4z"></path> <g> <path class="st1" d="M83.5,135.8v-0.1c-1.7-8.8-7-14.5-12.6-19.9c0,0-5.1-5-8.7-10.4c6.9,6.8,14.1,0.3,14.1,0.3 c7.3-6.9,4.2-14.5,4.2-14.5c-3.7-0.8-9.8,0.9-9.8,0.9c-10.5,3.5-10.4,8.9-9.7,11.3c-0.7-1.2-1.3-2.4-1.7-3.5 c2.4-3.3,10.1-16-10.7-25.9c0,0-6.2,9.2-1.8,19.3c0,0,2.5,6.1,11.3,7.3c0.3,1,0.7,1.9,1.1,2.9c-1.6-1.7-5.2-3.2-12.6,1 c0,0-7.1,4.5-7,10.7c0,0,10.2,5.9,18.5-0.9c0,0,3.9-3,2.7-7.7c3.5,6,8.5,11,8.5,11c10.3,10.1,11.3,20,11.3,20 c1.2,13.4-10.5,23.8-23.8,24.3c-0.9,0-1.8,0-2.7,0c-11.1-0.6-20-9.5-20.5-20.1c0-0.5,0-0.9,0-1.4c0.3-8.8,6.7-15.1,16.9-15.6 l0.4,0c3.4,0,6.6,0.7,9.5,2.4c-3.7-1.4-8.4-1.8-14.2,0.1c0,0-10.7,4.2-5.7,15.4c0,0,6.3,12.4,22.5,8.3c0,0,10.4-3,8.5-12.5 c-0.4-4.4-3.6-8.9-7.3-11.9c-3.8-3-8.7-5-13.5-4.9c-11.6,0.4-20.3,8-20.5,18.5c0,0.5,0,1.1,0,1.6c0.5,12.2,10.8,22.4,23.7,23.2 c1,0.1,2,0.1,3,0h0C72.4,164.5,86.5,154.4,83.5,135.8z M68.4,137.7c2.7,7.7-6.6,10.9-6.6,10.9c-12.3,3.4-18.1-6.6-18.1-6.6 c-4.1-9,4.5-12.4,4.5-12.4C62.6,124.7,68.4,137.7,68.4,137.7z"></path> <path class="st1" d="M63,141.2c0,0,2.5,0.6,2.4-1.5c0,0-0.2-3.3-6.2-5.1c0,0-4.7-1.1-3.2,2.1C56.1,136.7,57.4,140,63,141.2z"></path> </g> <g> <g> <path class="st1" d="M31.6,184.8l7.7,10h-4.6l-7.1-9.6h-0.7v9.6h-3.8v-23.4h4.4c3.3,0,5.7,0.6,7.2,1.7c1.6,1.3,2.4,3,2.4,5.1 c0,1.7-0.5,3.1-1.5,4.3C34.6,183.7,33.3,184.5,31.6,184.8z M26.9,182.1h1.2c3.6,0,5.4-1.3,5.4-3.8c0-2.4-1.7-3.6-5.2-3.6h-1.3 V182.1z"></path> <path class="st1" d="M48.9,174.7v20.1h-3.8v-20.1h-5.8v-3.3h15.3v3.3H48.9z"></path> <path class="st1" d="M66.9,184.8l7.7,10h-4.6l-7.2-9.6h-0.7v9.6h-3.8v-23.4h4.4c3.3,0,5.7,0.6,7.2,1.7c1.6,1.3,2.4,3,2.4,5.1 c0,1.7-0.5,3.1-1.5,4.3C69.9,183.7,68.6,184.5,66.9,184.8z M62.2,182.1h1.2c3.6,0,5.4-1.3,5.4-3.8c0-2.4-1.7-3.6-5.2-3.6h-1.3 V182.1z"></path> <path class="st1" d="M90.9,174.8l-3.1,1.7c-0.6-0.9-1.1-1.5-1.6-1.8c-0.5-0.3-1.2-0.5-2.1-0.5c-1,0-1.9,0.3-2.6,0.8 c-0.7,0.5-1,1.2-1,2.1c0,1.1,0.9,2.1,2.7,2.8l2.5,1c2,0.8,3.5,1.7,4.5,2.8c0.9,1.1,1.4,2.5,1.4,4.1c0,2.2-0.8,3.9-2.3,5.3 c-1.5,1.4-3.5,2.1-5.8,2.1c-2.2,0-4-0.6-5.4-1.8c-1.4-1.2-2.3-2.9-2.6-5.1l3.8-0.8c0.2,1.4,0.5,2.3,0.9,2.9 c0.8,1,1.9,1.5,3.4,1.5c1.2,0,2.2-0.4,2.9-1.1c0.8-0.7,1.2-1.7,1.2-2.8c0-0.5-0.1-0.9-0.2-1.3c-0.1-0.4-0.3-0.7-0.6-1 c-0.3-0.3-0.7-0.6-1.1-0.9c-0.5-0.3-1-0.5-1.6-0.8l-2.4-0.9c-3.4-1.4-5.1-3.3-5.1-5.9c0-1.8,0.7-3.2,2.2-4.4 c1.4-1.2,3.2-1.8,5.4-1.8C87,170.9,89.3,172.2,90.9,174.8z"></path> </g> </g> </g> </svg> 