<?xml version="1.0" encoding="UTF-8"?> <!-- Generator: Adobe Illustrator 21.0.0, SVG Export Plug-In . SVG Version: 6.00 Build 0) --> <svg xmlns="http://www.w3.org/2000/svg" xmlns:xlink="http://www.w3.org/1999/xlink" id="Capa_1" x="0px" y="0px" viewBox="0 0 70.9 156.4" style="enable-background:new 0 0 70.9 156.4;" xml:space="preserve"> <style type="text/css"> .st0{fill:#58891F;} .st1{fill:#FFFFFF;} </style> <g> <path class="st0" d="M70.9,146.1c0,5.7-3.6,10.2-8,10.2H8c-4.5,0-8-4.6-8-10.2V0h70.8L70.9,146.1L70.9,146.1z"></path> <g> <path class="st1" d="M56,96.9L56,96.9c-1.3-7-5.5-11.5-9.9-15.7c0,0-4-3.9-6.8-8.2c5.4,5.3,11.1,0.2,11.1,0.2 c5.7-5.4,3.3-11.4,3.3-11.4c-2.9-0.6-7.7,0.7-7.7,0.7c-8.3,2.8-8.2,7-7.6,8.9c-0.6-0.9-1-1.9-1.3-2.8c1.9-2.6,7.9-12.6-8.4-20.4 c0,0-4.9,7.2-1.4,15.2c0,0,2,4.8,8.9,5.7c0.2,0.8,0.6,1.5,0.9,2.3c-1.3-1.3-4.1-2.5-9.9,0.8c0,0-5.6,3.5-5.5,8.4 c0,0,8,4.6,14.6-0.7c0,0,3.1-2.4,2.1-6.1c2.8,4.7,6.7,8.7,6.7,8.7c8.1,7.9,8.9,15.7,8.9,15.7c0.9,10.5-8.3,18.7-18.7,19.1 c-0.7,0-1.4,0-2.1,0c-8.7-0.5-15.7-7.5-16.1-15.8c0-0.4,0-0.7,0-1.1C17,93.6,22,88.6,30,88.2h0.3c2.7,0,5.2,0.6,7.5,1.9 c-2.9-1.1-6.6-1.4-11.2,0.1c0,0-8.4,3.3-4.5,12.1c0,0,5,9.8,17.7,6.5c0,0,8.2-2.4,6.7-9.8c-0.3-3.5-2.8-7-5.7-9.4 c-3-2.4-6.8-3.9-10.6-3.9c-9.1,0.3-16,6.3-16.1,14.6c0,0.4,0,0.9,0,1.3c0.4,9.6,8.5,17.6,18.6,18.2c0.8,0.1,1.6,0.1,2.4,0l0,0 C47.3,119.5,58.4,111.5,56,96.9z M44.1,98.4c2.1,6.1-5.2,8.6-5.2,8.6c-9.7,2.7-14.2-5.2-14.2-5.2c-3.2-7.1,3.5-9.8,3.5-9.8 C39.6,88.2,44.1,98.4,44.1,98.4z"></path> <path class="st1" d="M39.9,101.1c0,0,2,0.5,1.9-1.2c0,0-0.2-2.6-4.9-4c0,0-3.7-0.9-2.5,1.7C34.4,97.6,35.5,100.2,39.9,101.1z"></path> </g> <g> <g> <path class="st1" d="M15.2,135.4l6.1,7.9h-3.6l-5.6-7.6h-0.6v7.6h-3v-18.4H12c2.6,0,4.5,0.5,5.7,1.3c1.3,1,1.9,2.4,1.9,4 c0,1.3-0.4,2.4-1.2,3.4C17.5,134.6,16.5,135.2,15.2,135.4z M11.5,133.3h0.9c2.8,0,4.2-1,4.2-3c0-1.9-1.3-2.8-4.1-2.8h-1 L11.5,133.3L11.5,133.3z"></path> <path class="st1" d="M28.8,127.5v15.8h-3v-15.8h-4.6v-2.6h12v2.6H28.8z"></path> <path class="st1" d="M42.9,135.4l6.1,7.9h-3.6l-5.7-7.6h-0.6v7.6h-3v-18.4h3.5c2.6,0,4.5,0.5,5.7,1.3c1.3,1,1.9,2.4,1.9,4 c0,1.3-0.4,2.4-1.2,3.4C45.3,134.6,44.3,135.2,42.9,135.4z M39.2,133.3h0.9c2.8,0,4.2-1,4.2-3c0-1.9-1.3-2.8-4.1-2.8h-1 L39.2,133.3L39.2,133.3z"></path> <path class="st1" d="M61.8,127.6l-2.4,1.3c-0.5-0.7-0.9-1.2-1.3-1.4c-0.4-0.2-0.9-0.4-1.7-0.4c-0.8,0-1.5,0.2-2,0.6 s-0.8,0.9-0.8,1.7c0,0.9,0.7,1.7,2.1,2.2l2,0.8c1.6,0.6,2.8,1.3,3.5,2.2c0.7,0.9,1.1,2,1.1,3.2c0,1.7-0.6,3.1-1.8,4.2 c-1.2,1.1-2.8,1.7-4.6,1.7c-1.7,0-3.1-0.5-4.2-1.4c-1.1-0.9-1.8-2.3-2-4l3-0.6c0.2,1.1,0.4,1.8,0.7,2.3c0.6,0.8,1.5,1.2,2.7,1.2 c0.9,0,1.7-0.3,2.3-0.9c0.6-0.6,0.9-1.3,0.9-2.2c0-0.4-0.1-0.7-0.2-1c-0.1-0.3-0.2-0.6-0.5-0.8c-0.2-0.2-0.6-0.5-0.9-0.7 c-0.4-0.2-0.8-0.4-1.3-0.6l-1.9-0.7c-2.7-1.1-4-2.6-4-4.6c0-1.4,0.6-2.5,1.7-3.5c1.1-0.9,2.5-1.4,4.2-1.4 C58.8,124.5,60.6,125.5,61.8,127.6z"></path> </g> </g> </g> </svg> 